<?xml version="1.0" encoding="UTF-8"?>
<!DOCTYPE svg PUBLIC "-//W3C//DTD SVG 1.1//EN" "http://www.w3.org/Graphics/SVG/1.1/DTD/svg11.dtd">
<!-- Creator: CorelDRAW 2020 (64 Bit) -->
<svg xmlns="http://www.w3.org/2000/svg" xml:space="preserve" width="297mm" height="210mm" version="1.1" style="shape-rendering:geometricPrecision; text-rendering:geometricPrecision; image-rendering:optimizeQuality; fill-rule:evenodd; clip-rule:evenodd"
viewBox="0 0 29700 21000"
 xmlns:xlink="http://www.w3.org/1999/xlink"
 xmlns:xodm="http://www.corel.com/coreldraw/odm/2003"
 zoomAndPan="magnify">
 <defs>
  <style type="text/css">
   <![CDATA[
    .fil1 {fill:none;fill-rule:nonzero}
    .fil3 {fill:#34C1D5;fill-rule:nonzero}
    .fil0 {fill:#27C6D9;fill-rule:nonzero}
    .fil2 {fill:white;fill-rule:nonzero}
   ]]>
  </style>
   <clipPath id="id0" style="clip-rule:nonzero">
    <path d="M20353.35 4799.49zm-5503.35 5700.51"/>
   </clipPath>
    <clipPath id="id1" style="clip-rule:nonzero">
     <path d="M5940.34 12546.58l1977.84 0 0 1582.25 -1977.84 0 0 -1582.25zm0 0z"/>
    </clipPath>
    <clipPath id="id2" style="clip-rule:nonzero">
     <path d="M5149.17 12546.58l791.17 0 0 395.59 -791.17 0 0 -395.59zm0 0z"/>
    </clipPath>
    <clipPath id="id3" style="clip-rule:nonzero">
     <path d="M5940.34 12151.11l395.59 0 0 395.47 -395.59 0 0 -395.47zm0 0z"/>
    </clipPath>
    <clipPath id="id4" style="clip-rule:nonzero">
     <path d="M5544.76 12942.17l791.17 0 0 791.18 -791.17 0 0 -791.18zm0 0z"/>
    </clipPath>
    <clipPath id="id5" style="clip-rule:nonzero">
     <path d="M5149.17 12942.17l791.17 0 0 395.59 -791.17 0 0 -395.59zm0 0z"/>
    </clipPath>
    <clipPath id="id6" style="clip-rule:nonzero">
     <path d="M5544.76 12151.11l395.58 0 0 791.06 -395.58 0 0 -791.06zm0 0z"/>
    </clipPath>
    <clipPath id="id7" style="clip-rule:nonzero">
     <path d="M19448.59 8853.18l1590.66 0 1519.79 0 0 2844.71 -3110.45 0 0 -2844.71z"/>
    </clipPath>
    <clipPath id="id8" style="clip-rule:nonzero">
     <path d="M5940.34 12546.58l1977.84 0 0 1582.25 -1977.84 0 0 -1582.25zm0 0z"/>
    </clipPath>
    <clipPath id="id9" style="clip-rule:nonzero">
     <path d="M5149.17 12546.58l791.17 0 0 395.59 -791.17 0 0 -395.59zm0 0z"/>
    </clipPath>
    <clipPath id="id10" style="clip-rule:nonzero">
     <path d="M5940.34 12151.11l395.59 0 0 395.47 -395.59 0 0 -395.47zm0 0z"/>
    </clipPath>
    <clipPath id="id11" style="clip-rule:nonzero">
     <path d="M5544.76 12942.17l791.17 0 0 791.18 -791.17 0 0 -791.18zm0 0z"/>
    </clipPath>
 </defs>
 <g id="Camada_x0020_1">
  <metadata id="CorelCorpID_0Corel-Layer"/>
  <g>
  </g>
  <g style="clip-path:url(#id0)">
   <g>
    <path class="fil0" d="M22774.66 6910.2c-126.71,156.08 -291.98,279.76 -485.18,352.31 44.85,-103.5 80.39,-222.46 106.63,-352.31l-288.95 0c-67.95,278.19 -162.25,421.83 -205.53,421.83 -44.74,0 -139.04,-143.64 -206.99,-421.83l-288.96 0c27.81,129.85 61.78,248.81 106.64,352.31 -191.63,-72.55 -358.48,-196.23 -485.19,-352.31l-343.11 0c244.22,420.37 696.88,703.05 1217.61,703.05 519.26,0 971.93,-282.68 1216.03,-703.05l-343 0zm-1747.53 -1407.66c126.71,-155.97 293.56,-279.65 485.19,-350.74 -44.86,102.04 -78.83,222.58 -106.64,350.74l288.96 0c67.95,-278.08 162.25,-421.83 206.99,-421.83 43.28,0 137.58,143.75 205.53,421.83l288.95 0c-26.24,-128.16 -61.78,-248.7 -106.63,-350.74 193.2,71.09 358.47,194.77 485.18,350.74l343 0c-244.1,-418.69 -696.77,-703.05 -1216.03,-703.05 -520.73,0 -973.39,284.36 -1217.61,703.05l343.11 0zm-4.7 755.63l75.79 -472.84 210.13 0 -174.69 843.65 -182.32 0 -120.43 -488.21 -119.08 488.21 -183.78 0 -174.7 -843.65 211.7 0 75.8 474.41 111.23 -474.41 157.54 0 112.81 472.84zm1069.25 0l75.8 -472.84 211.59 0 -174.58 843.65 -183.9 0 -118.96 -488.21 -118.97 488.21 -185.35 0 -174.7 -843.65 213.27 0 74.23 474.41 112.8 -474.41 155.97 0 112.8 472.84zm1069.26 0l75.8 -472.84 211.59 0 -174.59 843.65 -182.32 0 -120.54 -488.21 -118.96 488.21 -183.9 0 -174.58 -843.65 211.7 0 75.69 474.41 111.34 -474.41 157.54 0 111.23 472.84zm0 0z"/>
   </g>
  </g>
  <line class="fil1" x1="20353.35" y1="4799.49" x2="14850" y2= "10500" />
  <g>
   <path class="fil2" d="M3225.04 12117.36c673.67,0 1256.18,-343 1566.77,-899.27l46.42 0 0 826.61 284.25 0 0 -5159.26 -284.25 0 0 2447.54 -46.42 0c-304.32,-556.27 -886.94,-899.27 -1566.77,-899.27 -1005.91,0 -1800.11,753.95 -1800.11,1838.68 0,1090.9 794.2,1844.97 1800.11,1844.97zm44.85 -264.29c-865.3,0 -1560.72,-647.32 -1560.72,-1580.68 0,-933.24 695.42,-1574.51 1560.72,-1574.51 860.59,0 1555.9,641.27 1555.9,1574.51 0,933.36 -695.31,1580.68 -1555.9,1580.68zm0 0z"/>
   <path class="fil2" d="M8316.57 13599.14c1066.23,0 1959.34,-528.47 1959.34,-1739.79l0 -3353.09 -284.36 0 0 1925.36c0,832.77 -596.41,1415.28 -1336.57,1415.28 -774.14,0 -1336.57,-542.36 -1336.57,-1415.28l0 -1925.36 -284.36 0 0 1931.52c0,1032.15 647.43,1679.58 1554.44,1679.58 588.78,0 1104.8,-322.93 1369.09,-839.06l33.97 0 0 581.05c0,1052.21 -761.8,1463.28 -1667.24,1463.28 -350.74,0 -826.72,-100.47 -1171.29,-231.77l-72.55 276.51c356.9,126.7 886.94,231.77 1236.1,231.77zm0 0z"/>
   <path class="fil2" d="M12186.69 12038.53l284.25 0 0 -2249.75c32.52,-641.26 516.13,-1084.73 1111.08,-1084.73 681.41,0 1084.62,457.37 1084.62,1158.85l0 2175.63 284.36 0 0 -2195.7c13.9,-675.24 495.94,-1138.78 1098.63,-1138.78 614.92,0 1098.64,469.71 1098.64,1158.85l0 2175.63 284.25 0 0 -2183.37c0,-838.94 -588.68,-1421.45 -1322.67,-1421.45 -550.11,0 -1012.08,316.65 -1217.61,820.44l-40.14 0c-185.46,-509.96 -615.02,-820.44 -1209.87,-820.44 -516.12,0 -953.43,284.24 -1165.01,747.78l-38.69 0 -86.56 -675.23 -165.28 0 0 3532.27zm0 0z"/>
   <path class="fil0" d="M21003.03 12117.36c1025.97,0 1846.53,-754.07 1846.53,-1844.97 0,-2435.43 -3691.5,-2436.22 -3691.5,0 0,1090.9 820.56,1844.97 1844.97,1844.97zm0 -264.29c-865.3,0 -1560.61,-647.32 -1560.61,-1580.68 0,-933.24 695.31,-1574.51 1560.61,-1574.51 866.86,0 1562.17,641.27 1562.17,1574.51 0,933.36 -695.31,1580.68 -1562.17,1580.68z"/>
   <path class="fil2" d="M26467.61 12117.36c1005.91,0 1806.4,-754.07 1806.4,-1844.97 0,-1084.73 -800.49,-1838.68 -1806.4,-1838.68 -673.66,0 -1262.34,343 -1566.77,899.27l-40.14 0 0 -2447.54 -284.36 0 0 5153.09 284.36 0 0 -826.61 40.14 0c304.43,562.44 893.11,905.44 1566.77,905.44zm-38.57 -264.29c-866.86,0 -1562.17,-647.32 -1562.17,-1580.68 0,-933.24 695.31,-1574.51 1562.17,-1574.51 859.13,0 1554.44,641.27 1554.44,1574.51 0,933.36 -695.31,1580.68 -1554.44,1580.68zm0 0z"/>
   <g>
   </g>
   <g style="clip-path:url(#id1)">
    <g>
     <path class="fil2" d="M7219.73 13107.56c-13.9,-4.71 -26.24,-17.04 -32.4,-30.94 -6.17,-15.48 -4.71,-32.41 3.02,-46.31l222.58 -397.16 -1331.98 247.24 939.42 976.53 49.45 -452.78c1.57,-15.36 10.87,-29.26 24.78,-38.57 12.33,-7.73 29.37,-10.87 44.85,-6.17l435.73 140.61c27.81,7.74 57.19,-6.16 66.38,-35.54l49.45 -151.49c4.71,-12.33 3.14,-27.8 -3.03,-40.14 -7.74,-12.33 -18.61,-21.64 -32.52,-26.24l-435.73 -139.04z"/>
    </g>
   </g>
   <path class="fil1" d="M5940.34 12546.58l1977.84 0 0 1582.25 -1977.84 0 0 -1582.25zm0 0z"/>
   <g>
   </g>
   <g style="clip-path:url(#id2)">
    <g>
     <path class="fil2" d="M5459.76 12625.41c-27.81,-9.31 -58.64,6.17 -67.95,33.98 -7.74,27.8 7.74,57.18 35.55,66.49l202.39 64.92c13.9,4.6 27.81,3.03 40.14,-3.14 12.45,-6.17 21.64,-17.04 26.35,-30.95 7.74,-27.8 -7.74,-57.07 -35.54,-66.38l-200.94 -64.92z"/>
    </g>
   </g>
   <path class="fil1" d="M5149.17 12546.58l791.17 0 0 395.59 -791.17 0 0 -395.59zm0 0z"/>
   <g>
   </g>
   <g style="clip-path:url(#id3)">
    <g>
     <path class="fil2" d="M6170.54 12531.11c12.45,-6.17 21.65,-18.5 26.36,-32.4l64.81 -200.83c7.73,-27.8 -7.74,-58.75 -35.55,-68.06 -27.81,-7.74 -57.18,7.74 -66.38,35.55l-64.92 200.93c-9.31,29.38 6.17,58.64 33.97,67.95 15.48,4.6 29.38,3.14 41.71,-3.14z"/>
    </g>
   </g>
   <path class="fil1" d="M5940.34 12151.11l395.59 0 0 395.47 -395.59 0 0 -395.47zm0 0z"/>
   <g>
   </g>
   <g style="clip-path:url(#id4)">
    <g>
     <path class="fil2" d="M5852.32 13224.96l-64.92 202.39c-9.31,27.81 6.17,57.19 33.98,66.5 13.9,4.59 27.8,3.02 40.14,-3.14 12.33,-6.17 21.64,-16.93 26.24,-30.95l64.92 -202.39c9.31,-27.81 -6.17,-57.19 -33.98,-66.38 -27.8,-9.31 -57.18,6.16 -66.38,33.97z"/>
    </g>
   </g>
   <path class="fil1" d="M5544.76 12942.17l791.17 0 0 791.18 -791.17 0 0 -791.18zm0 0z"/>
   <g>
   </g>
   <g style="clip-path:url(#id5)">
    <g>
     <path class="fil3" d="M5717.88 13019.43c-13.9,-24.67 -46.42,-35.54 -72.66,-23.21l-188.49 97.44c-23.09,12.22 -32.96,38.57 -26.79,61.56l9.41 18.28c15.81,19.73 43.62,26.57 66.83,14.35l188.49 -95.76c26.24,-13.9 35.55,-46.42 23.21,-72.66z"/>
    </g>
   </g>
   <path class="fil1" d="M5149.17 12942.17l791.17 0 0 395.59 -791.17 0 0 -395.59zm0 0z"/>
   <g>
   </g>
   <g style="clip-path:url(#id6)">
    <g>
     <path class="fil3" d="M5792 12294.74c-11.55,-22.98 -40.48,-33.97 -65.71,-24.1l-10.09 5.04 -1.12 0.67 -1.12 0.68c-20.86,14.35 -27.36,43.5 -16.26,67.16l97.44 188.49c13.9,26.35 44.74,35.55 71.09,23.21 26.24,-13.9 37,-46.31 23.1,-71.09l-97.33 -190.06z"/>
    </g>
   </g>
   <path class="fil1" d="M5544.76 12151.11l395.58 0 0 791.06 -395.58 0 0 -791.06zm0 0z"/>
   <g>
   </g>
   <g style="clip-path:url(#id7)">
    <g>
     <path class="fil0" d="M21869.9 10963.89c-126.71,156.08 -291.98,279.76 -485.18,352.31 44.85,-103.5 80.39,-222.46 106.63,-352.31l-288.95 0c-67.95,278.19 -162.25,421.83 -205.53,421.83 -44.74,0 -139.04,-143.64 -206.99,-421.83l-288.96 0c27.81,129.85 61.78,248.81 106.64,352.31 -191.63,-72.55 -358.48,-196.23 -485.19,-352.31l-343.11 0c244.22,420.37 696.88,703.05 1217.61,703.05 519.26,0 971.93,-282.68 1216.03,-703.05l-343 0zm-1747.53 -1407.66c126.71,-155.97 293.56,-279.65 485.19,-350.74 -44.86,102.04 -78.83,222.58 -106.64,350.74l288.96 0c67.95,-278.08 162.25,-421.83 206.99,-421.83 43.28,0 137.58,143.75 205.53,421.83l288.95 0c-26.24,-128.16 -61.78,-248.7 -106.63,-350.74 193.2,71.09 358.47,194.77 485.18,350.74l343 0c-244.1,-418.69 -696.77,-703.05 -1216.03,-703.05 -520.73,0 -973.39,284.36 -1217.61,703.05l343.11 0zm-4.7 755.63l75.79 -472.84 210.13 0 -174.69 843.65 -182.32 0 -120.43 -488.21 -119.08 488.21 -183.78 0 -174.7 -843.65 211.7 0 75.8 474.41 111.23 -474.41 157.54 0 112.81 472.84zm1069.25 0l75.8 -472.84 211.59 0 -174.58 843.65 -183.9 0 -118.96 -488.21 -118.97 488.21 -185.35 0 -174.7 -843.65 213.27 0 74.23 474.41 112.8 -474.41 155.97 0 112.8 472.84zm1069.26 0l75.8 -472.84 211.59 0 -174.59 843.65 -182.32 0 -120.54 -488.21 -118.96 488.21 -183.9 0 -174.58 -843.65 211.7 0 75.69 474.41 111.34 -474.41 157.54 0 111.23 472.84zm0 0z"/>
    </g>
   </g>
   <polygon class="fil1" points="19448.59,8853.18 21039.25,8853.18 22559.04,8853.18 22559.04,11697.89 19448.59,11697.89 "/>
   <g>
   </g>
   <g style="clip-path:url(#id8)">
    <g>
     <path class="fil2" d="M7219.73 13107.56c-13.9,-4.71 -26.24,-17.04 -32.4,-30.94 -6.17,-15.48 -4.71,-32.41 3.02,-46.31l222.58 -397.16 -1331.98 247.24 939.42 976.53 49.45 -452.78c1.57,-15.36 10.87,-29.26 24.78,-38.57 12.33,-7.73 29.37,-10.87 44.85,-6.17l435.73 140.61c27.81,7.74 57.19,-6.16 66.38,-35.54l49.45 -151.49c4.71,-12.33 3.14,-27.8 -3.03,-40.14 -7.74,-12.33 -18.61,-21.64 -32.52,-26.24l-435.73 -139.04z"/>
    </g>
   </g>
   <path class="fil1" d="M5940.34 12546.58l1977.84 0 0 1582.25 -1977.84 0 0 -1582.25zm0 0z"/>
   <g>
   </g>
   <g style="clip-path:url(#id9)">
    <g>
     <path class="fil3" d="M5459.76 12625.41c-27.81,-9.31 -58.64,6.17 -67.95,33.98 -7.74,27.8 7.74,57.18 35.55,66.49l202.39 64.92c13.9,4.6 27.81,3.03 40.14,-3.14 12.45,-6.17 21.64,-17.04 26.35,-30.95 7.74,-27.8 -7.74,-57.07 -35.54,-66.38l-200.94 -64.92z"/>
    </g>
   </g>
   <path class="fil1" d="M5149.17 12546.58l791.17 0 0 395.59 -791.17 0 0 -395.59zm0 0z"/>
   <g>
   </g>
   <g style="clip-path:url(#id10)">
    <g>
     <path class="fil3" d="M6170.54 12531.11c12.45,-6.17 21.65,-18.5 26.36,-32.4l64.81 -200.83c7.73,-27.8 -7.74,-58.75 -35.55,-68.06 -27.81,-7.74 -57.18,7.74 -66.38,35.55l-64.92 200.93c-9.31,29.38 6.17,58.64 33.97,67.95 15.48,4.6 29.38,3.14 41.71,-3.14z"/>
    </g>
   </g>
   <path class="fil1" d="M5940.34 12151.11l395.59 0 0 395.47 -395.59 0 0 -395.47zm0 0z"/>
   <g>
   </g>
   <g style="clip-path:url(#id11)">
    <g>
     <path class="fil3" d="M5852.32 13224.96l-64.92 202.39c-9.31,27.81 6.17,57.19 33.98,66.5 13.9,4.59 27.8,3.02 40.14,-3.14 12.33,-6.17 21.64,-16.93 26.24,-30.95l64.92 -202.39c9.31,-27.81 -6.17,-57.19 -33.98,-66.38 -27.8,-9.31 -57.18,6.16 -66.38,33.97z"/>
    </g>
   </g>
   <path class="fil1" d="M5544.76 12942.17l791.17 0 0 791.18 -791.17 0 0 -791.18zm0 0z"/>
  </g>
 </g>
</svg>
